<svg width="145" height="24" viewBox="0 0 145 24" fill="none" xmlns="http://www.w3.org/2000/svg">
<path d="M0.42075 23V0.279999H9.15675C11.6741 0.279999 13.7754 0.791999 15.4608 1.816C17.1674 2.81867 18.4474 4.184 19.3008 5.912C20.1754 7.61867 20.6128 9.51733 20.6128 11.608C20.6128 13.912 20.1328 15.9173 19.1728 17.624C18.2341 19.3307 16.9008 20.6533 15.1728 21.592C13.4661 22.5307 11.4608 23 9.15675 23H0.42075ZM14.2768 11.608C14.2768 10.4347 14.0741 9.41067 13.6688 8.536C13.2634 7.64 12.6768 6.94667 11.9088 6.456C11.1408 5.96533 10.2234 5.72 9.15675 5.72H6.66075V17.56H9.15675C10.2448 17.56 11.1621 17.304 11.9088 16.792C12.6768 16.28 13.2634 15.576 13.6688 14.68C14.0741 13.7627 14.2768 12.7387 14.2768 11.608ZM33.247 23.192C31.4337 23.192 29.8763 22.8933 28.575 22.296C27.2737 21.6987 26.207 20.8773 25.375 19.832C24.5643 18.7867 23.967 17.592 23.583 16.248C23.199 14.8827 23.007 13.4533 23.007 11.96V0.279999H29.247V11.96C29.247 12.7067 29.3217 13.4213 29.471 14.104C29.6203 14.7867 29.855 15.3947 30.175 15.928C30.495 16.4613 30.9003 16.888 31.391 17.208C31.903 17.5067 32.5217 17.656 33.247 17.656C33.9937 17.656 34.623 17.5067 35.135 17.208C35.647 16.888 36.0523 16.4613 36.351 15.928C36.671 15.3733 36.9057 14.7547 37.055 14.072C37.2043 13.3893 37.279 12.6853 37.279 11.96V0.279999H43.519V11.96C43.519 13.5387 43.3057 15.0107 42.879 16.376C42.4737 17.7413 41.855 18.936 41.023 19.96C40.191 20.984 39.1243 21.784 37.823 22.36C36.543 22.9147 35.0177 23.192 33.247 23.192ZM45.8603 11.448C45.8603 10.0613 46.1163 8.70667 46.6283 7.384C47.1616 6.04 47.9296 4.824 48.9323 3.736C49.9349 2.648 51.1509 1.784 52.5803 1.144C54.0309 0.482665 55.6629 0.151999 57.4763 0.151999C59.6523 0.151999 61.5509 0.610666 63.1723 1.528C64.7936 2.424 65.9989 3.61867 66.7883 5.112L62.0203 8.504C61.7429 7.75733 61.3376 7.18133 60.8043 6.776C60.2923 6.37067 59.7269 6.09333 59.1083 5.944C58.5109 5.77333 57.9243 5.688 57.3483 5.688C56.4523 5.688 55.6736 5.86933 55.0123 6.232C54.3723 6.57333 53.8389 7.032 53.4123 7.608C53.0069 8.184 52.6976 8.824 52.4843 9.528C52.2923 10.232 52.1963 10.936 52.1963 11.64C52.1963 12.4293 52.3136 13.1867 52.5483 13.912C52.7829 14.6373 53.1243 15.288 53.5723 15.864C54.0203 16.4187 54.5643 16.856 55.2043 17.176C55.8656 17.496 56.6016 17.656 57.4123 17.656C57.9883 17.656 58.5749 17.5707 59.1723 17.4C59.7696 17.208 60.3136 16.9093 60.8043 16.504C61.2949 16.0987 61.6683 15.5547 61.9243 14.872L67.0123 17.912C66.5643 19.0213 65.8176 19.9707 64.7723 20.76C63.7269 21.5493 62.5429 22.1573 61.2203 22.584C59.8976 22.9893 58.5856 23.192 57.2843 23.192C55.5989 23.192 54.0523 22.8613 52.6443 22.2C51.2576 21.5173 50.0523 20.6213 49.0283 19.512C48.0256 18.3813 47.2469 17.1227 46.6923 15.736C46.1376 14.328 45.8603 12.8987 45.8603 11.448Z" fill="#0846A6"/>
<path d="M86.9293 5.72H80.4013V23H74.1613V5.72H67.6013V0.279999H86.9293V5.72ZM92.3563 0.279999H99.3323L106.564 23H100.228L98.8523 18.552H92.8043L91.4603 23H85.0922L92.3563 0.279999ZM97.8603 14.392L95.8443 6.392L93.7323 14.392H97.8603ZM108.452 23V0.279999H118.244C119.353 0.279999 120.377 0.503999 121.316 0.952C122.255 1.4 123.065 2.008 123.748 2.776C124.431 3.52267 124.953 4.36533 125.316 5.304C125.7 6.24267 125.892 7.192 125.892 8.152C125.892 9.496 125.572 10.7653 124.932 11.96C124.313 13.1547 123.439 14.136 122.308 14.904C121.199 15.6507 119.897 16.024 118.404 16.024H114.692V23H108.452ZM114.692 10.584H117.988C118.244 10.584 118.489 10.5093 118.724 10.36C118.959 10.2107 119.151 9.95467 119.3 9.592C119.471 9.22933 119.556 8.74933 119.556 8.152C119.556 7.512 119.46 7.02133 119.268 6.68C119.097 6.31733 118.873 6.072 118.596 5.944C118.34 5.79467 118.084 5.72 117.828 5.72H114.692V10.584ZM144.582 17.56V23H128.39V0.279999H144.294V5.72H134.63V8.92H142.885V13.976H134.63V17.56H144.582Z" fill="#DC3444"/>
</svg>
